<mxfile host="app.diagrams.net" modified="2022-12-20T02:31:50.441Z" agent="5.0 (X11; Linux x86_64) AppleWebKit/537.36 (KHTML, like Gecko) Chrome/107.0.0.0 Safari/537.36" version="20.6.2" etag="HVTD46FEt6AnklAdEpze" type="github">
  <diagram id="iKwlXs6dO-UtLJNZuOfr" name="P치gina-1">
    <mxGraphModel dx="972" dy="528" grid="1" gridSize="10" guides="1" tooltips="1" connect="1" arrows="1" fold="1" page="1" pageScale="1" pageWidth="827" pageHeight="1169" math="0" shadow="0">
      <root>
        <mxCell id="0" />
        <mxCell id="1" parent="0" />
        <mxCell id="nzH8F3yJYisah-NNcrjW-6" style="edgeStyle=orthogonalEdgeStyle;rounded=0;orthogonalLoop=1;jettySize=auto;html=1;entryX=0;entryY=0.5;entryDx=0;entryDy=0;" edge="1" parent="1" source="nzH8F3yJYisah-NNcrjW-1" target="nzH8F3yJYisah-NNcrjW-4">
          <mxGeometry relative="1" as="geometry" />
        </mxCell>
        <mxCell id="nzH8F3yJYisah-NNcrjW-1" value="Definici칩n del plan de pruebas." style="rounded=1;whiteSpace=wrap;html=1;" vertex="1" parent="1">
          <mxGeometry x="230" y="280" width="120" height="60" as="geometry" />
        </mxCell>
        <mxCell id="nzH8F3yJYisah-NNcrjW-5" style="edgeStyle=orthogonalEdgeStyle;rounded=0;orthogonalLoop=1;jettySize=auto;html=1;entryX=0;entryY=0.5;entryDx=0;entryDy=0;" edge="1" parent="1" source="nzH8F3yJYisah-NNcrjW-2" target="nzH8F3yJYisah-NNcrjW-1">
          <mxGeometry relative="1" as="geometry" />
        </mxCell>
        <mxCell id="nzH8F3yJYisah-NNcrjW-2" value="Revisi칩n de los requisitos del sistema" style="rounded=1;whiteSpace=wrap;html=1;" vertex="1" parent="1">
          <mxGeometry x="40" y="280" width="120" height="60" as="geometry" />
        </mxCell>
        <mxCell id="nzH8F3yJYisah-NNcrjW-8" style="edgeStyle=orthogonalEdgeStyle;rounded=0;orthogonalLoop=1;jettySize=auto;html=1;entryX=0;entryY=0.5;entryDx=0;entryDy=0;" edge="1" parent="1" source="nzH8F3yJYisah-NNcrjW-4" target="nzH8F3yJYisah-NNcrjW-7">
          <mxGeometry relative="1" as="geometry" />
        </mxCell>
        <mxCell id="nzH8F3yJYisah-NNcrjW-4" value="Ejecutar el plan de pruebas" style="rounded=1;whiteSpace=wrap;html=1;" vertex="1" parent="1">
          <mxGeometry x="420" y="280" width="120" height="60" as="geometry" />
        </mxCell>
        <mxCell id="nzH8F3yJYisah-NNcrjW-7" value="Validaci칩n de pruebas con el cliente" style="rounded=1;whiteSpace=wrap;html=1;" vertex="1" parent="1">
          <mxGeometry x="610" y="280" width="120" height="60" as="geometry" />
        </mxCell>
      </root>
    </mxGraphModel>
  </diagram>
</mxfile>
